<svg width="79" height="133" viewBox="0 0 79 133" fill="none" xmlns="http://www.w3.org/2000/svg">
<path d="M42.0508 131.257C41.6402 131.312 41.3521 131.689 41.4071 132.1C41.4622 132.51 41.8397 132.798 42.2502 132.743L42.0508 131.257ZM0.599727 4.36574C0.249437 4.58681 0.144679 5.04998 0.365743 5.40027L3.9682 11.1086C4.18926 11.4589 4.65244 11.5636 5.00273 11.3426C5.35302 11.1215 5.45777 10.6583 5.23671 10.308L2.03453 5.23398L7.10858 2.0318C7.45888 1.81074 7.56363 1.34756 7.34257 0.997274C7.1215 0.646984 6.65833 0.542225 6.30804 0.76329L0.599727 4.36574ZM2.30534 6.07257C2.70833 6.16833 3.11265 5.91927 3.20841 5.51628C3.30417 5.11329 3.05511 4.70897 2.65212 4.61321L2.30534 6.07257ZM5.57961 5.3427C5.17882 5.23812 4.76913 5.47826 4.66456 5.87905C4.55999 6.27985 4.80012 6.68953 5.20092 6.79411L5.57961 5.3427ZM8.03537 7.56718C8.43374 7.68062 8.84865 7.44963 8.96209 7.05125C9.07553 6.65288 8.84454 6.23797 8.44616 6.12453L8.03537 7.56718ZM11.3254 6.98019C10.9298 6.85761 10.5096 7.07899 10.3871 7.47465C10.2645 7.87031 10.4859 8.29042 10.8815 8.413L11.3254 6.98019ZM13.7135 9.32711C14.1061 9.45903 14.5314 9.24767 14.6633 8.85502C14.7952 8.46238 14.5838 8.03713 14.1912 7.90521L13.7135 9.32711ZM16.9911 8.88321C16.6017 8.74193 16.1716 8.94305 16.0303 9.33243C15.889 9.7218 16.0901 10.152 16.4795 10.2933L16.9911 8.88321ZM19.2716 11.3459C19.6573 11.4969 20.0924 11.3066 20.2434 10.9209C20.3943 10.5351 20.2041 10.1001 19.8183 9.94908L19.2716 11.3459ZM22.598 11.078C22.2163 10.9172 21.7765 11.0964 21.6157 11.4781C21.455 11.8599 21.6341 12.2996 22.0159 12.4604L22.598 11.078ZM24.7034 13.633C25.0808 13.8036 25.5251 13.6358 25.6956 13.2584C25.8662 12.8809 25.6985 12.4366 25.321 12.2661L24.7034 13.633ZM28.0648 13.5505C27.6921 13.3699 27.2435 13.5255 27.0628 13.8983C26.8821 14.271 27.0378 14.7196 27.4105 14.9003L28.0648 13.5505ZM30.0417 16.2201C30.4094 16.4109 30.8621 16.2674 31.0528 15.8998C31.2436 15.5321 31.1002 15.0794 30.7325 14.8886L30.0417 16.2201ZM33.3795 16.3091C33.0173 16.1081 32.5608 16.2388 32.3598 16.601C32.1588 16.9632 32.2895 17.4197 32.6517 17.6207L33.3795 16.3091ZM35.2242 19.0965C35.5805 19.3078 36.0406 19.1903 36.2518 18.834C36.4631 18.4777 36.3455 18.0176 35.9893 17.8063L35.2242 19.0965ZM38.526 19.3604C38.176 19.1389 37.7127 19.2431 37.4912 19.5932C37.2697 19.9432 37.3739 20.4065 37.7239 20.628L38.526 19.3604ZM40.2207 22.2608C40.5639 22.4927 41.0301 22.4025 41.262 22.0592C41.4939 21.716 41.4037 21.2498 41.0605 21.0179L40.2207 22.2608ZM43.5086 22.7264C43.1726 22.4843 42.7039 22.5604 42.4617 22.8964C42.2195 23.2324 42.2956 23.7012 42.6316 23.9434L43.5086 22.7264ZM45.0116 25.7152C45.34 25.9677 45.8109 25.9062 46.0634 25.5779C46.3159 25.2495 46.2544 24.7787 45.926 24.5262L45.0116 25.7152ZM48.2761 26.3928C47.9559 26.1301 47.4833 26.1767 47.2206 26.497C46.9578 26.8172 47.0044 27.2898 47.3247 27.5525L48.2761 26.3928ZM49.5748 29.4595C49.8864 29.7323 50.3603 29.7008 50.6331 29.3892C50.906 29.0775 50.8745 28.6037 50.5628 28.3309L49.5748 29.4595ZM52.7973 30.3524C52.4947 30.0695 52.0201 30.0855 51.7372 30.388C51.4543 30.6906 51.4703 31.1652 51.7728 31.4481L52.7973 30.3524ZM53.8856 33.4896C54.1787 33.7824 54.6536 33.7821 54.9463 33.489C55.239 33.1959 55.2387 32.721 54.9456 32.4283L53.8856 33.4896ZM57.0474 34.5996C56.7644 34.2971 56.2898 34.2814 55.9873 34.5644C55.6848 34.8474 55.6691 35.322 55.9521 35.6244L57.0474 34.5996ZM57.919 37.7992C58.1916 38.1111 58.6654 38.143 58.9773 37.8704C59.2892 37.5978 59.321 37.124 59.0484 36.8121L57.919 37.7992ZM61.0001 39.1252C60.7386 38.804 60.2662 38.7556 59.945 39.0172C59.6238 39.2787 59.5754 39.7511 59.837 40.0723L61.0001 39.1252ZM61.6519 42.3822C61.902 42.7123 62.3724 42.7771 62.7026 42.527C63.0327 42.2768 63.0975 41.8064 62.8474 41.4762L61.6519 42.3822ZM64.6287 43.9162C64.3905 43.5773 63.9227 43.4957 63.5838 43.734C63.245 43.9722 63.1634 44.44 63.4016 44.7788L64.6287 43.9162ZM65.0492 47.2143C65.2751 47.5615 65.7396 47.6598 66.0868 47.4339C66.434 47.208 66.5324 46.7434 66.3065 46.3962L65.0492 47.2143ZM67.9061 48.9562C67.6931 48.6009 67.2324 48.4856 66.8772 48.6986C66.5219 48.9116 66.4066 49.3723 66.6196 49.7275L67.9061 48.9562ZM68.0854 52.2774C68.2851 52.6402 68.7412 52.7725 69.1041 52.5727C69.4669 52.3729 69.5992 51.9168 69.3994 51.554L68.0854 52.2774ZM70.8052 54.2251C70.6192 53.855 70.1684 53.7057 69.7983 53.8916C69.4282 54.0776 69.2789 54.5284 69.4648 54.8985L70.8052 54.2251ZM70.7348 57.55C70.9066 57.9269 71.3514 58.0932 71.7283 57.9214C72.1052 57.7496 72.2715 57.3048 72.0997 56.9279L70.7348 57.55ZM73.2989 59.6997C73.1419 59.3164 72.7038 59.133 72.3205 59.2901C71.9373 59.4471 71.7539 59.8852 71.9109 60.2685L73.2989 59.6997ZM72.9715 63.0072C73.1135 63.3963 73.544 63.5966 73.9331 63.4546C74.3222 63.3127 74.5226 62.8821 74.3806 62.493L72.9715 63.0072ZM75.3601 65.3533C75.2338 64.9588 74.8116 64.7414 74.4171 64.8677C74.0226 64.994 73.8052 65.4162 73.9315 65.8107L75.3601 65.3533ZM74.7701 68.6238C74.8803 69.0231 75.2934 69.2574 75.6927 69.1471C76.0919 69.0368 76.3262 68.6238 76.216 68.2245L74.7701 68.6238ZM76.9606 71.1559C76.867 70.7524 76.464 70.5012 76.0605 70.5948C75.657 70.6884 75.4058 71.0913 75.4993 71.4948L76.9606 71.1559ZM76.1033 74.3719C76.1798 74.779 76.5719 75.047 76.979 74.9705C77.386 74.894 77.654 74.5019 77.5775 74.0948L76.1033 74.3719ZM78.0711 77.0732C78.0122 76.6632 77.6322 76.3785 77.2222 76.4373C76.8121 76.4961 76.5274 76.8762 76.5863 77.2862L78.0711 77.0732ZM76.9401 80.2095C76.9807 80.6217 77.3478 80.923 77.76 80.8824C78.1722 80.8418 78.4734 80.4747 78.4328 80.0624L76.9401 80.2095ZM78.6602 83.0657C78.6384 82.652 78.2854 82.3344 77.8717 82.3562C77.4581 82.3781 77.1405 82.7311 77.1623 83.1447L78.6602 83.0657ZM77.249 86.0933C77.2514 86.5075 77.5891 86.8414 78.0033 86.839C78.4175 86.8366 78.7513 86.4989 78.7489 86.0847L77.249 86.0933ZM78.6944 89.0872C78.7119 88.6734 78.3907 88.3237 77.9768 88.3061C77.563 88.2886 77.2133 88.6098 77.1957 89.0237L78.6944 89.0872ZM76.9967 91.972C76.9584 92.3844 77.2616 92.7498 77.6741 92.7882C78.0865 92.8265 78.4519 92.5233 78.4903 92.1108L76.9967 91.972ZM78.1342 95.103C78.1938 94.6931 77.9099 94.3125 77.5 94.2528C77.0901 94.1931 76.7095 94.4771 76.6498 94.887L78.1342 95.103ZM76.1485 97.784C76.0667 98.19 76.3297 98.5855 76.7358 98.6672C77.1418 98.7489 77.5373 98.4859 77.619 98.0798L76.1485 97.784ZM76.9394 101.028C77.0438 100.627 76.8036 100.218 76.4027 100.113C76.0019 100.009 75.5923 100.249 75.4879 100.65L76.9394 101.028ZM74.6682 103.459C74.5405 103.853 74.7564 104.276 75.1504 104.404C75.5445 104.531 75.9674 104.315 76.0951 103.921L74.6682 103.459ZM75.0721 106.777C75.2238 106.392 75.0343 105.957 74.6488 105.805C74.2634 105.653 73.828 105.843 73.6763 106.228L75.0721 106.777ZM72.517 108.92C72.341 109.295 72.5022 109.742 72.8772 109.918C73.2521 110.094 73.6988 109.932 73.8748 109.557L72.517 108.92ZM72.5001 112.25C72.7007 111.887 72.5696 111.431 72.2073 111.23C71.8449 111.03 71.3885 111.161 71.1878 111.523L72.5001 112.25ZM69.679 114.038C69.4535 114.386 69.5525 114.85 69.9 115.076C70.2475 115.301 70.7119 115.202 70.9373 114.855L69.679 114.038ZM69.197 117.337C69.447 117.007 69.3819 116.536 69.0516 116.286C68.7214 116.036 68.251 116.101 68.001 116.432L69.197 117.337ZM66.1523 118.694C65.8784 119.005 65.9081 119.479 66.2188 119.753C66.5295 120.027 67.0034 119.997 67.2774 119.686L66.1523 118.694ZM65.1832 121.885C65.4802 121.597 65.4869 121.122 65.1982 120.825C64.9095 120.528 64.4346 120.521 64.1376 120.81L65.1832 121.885ZM61.9672 122.761C61.6485 123.025 61.6046 123.498 61.8692 123.817C62.1338 124.135 62.6067 124.179 62.9253 123.915L61.9672 122.761ZM60.5093 125.764C60.8479 125.526 60.9291 125.058 60.6906 124.719C60.452 124.38 59.9841 124.299 59.6455 124.538L60.5093 125.764ZM57.2004 126.119C56.844 126.33 56.7262 126.79 56.9373 127.147C57.1484 127.503 57.6084 127.621 57.9648 127.41L57.2004 126.119ZM55.2924 128.854C55.6642 128.672 55.8176 128.222 55.6351 127.85C55.4525 127.478 55.0031 127.325 54.6313 127.508L55.2924 128.854ZM51.9555 128.696C51.5708 128.849 51.3833 129.285 51.5368 129.67C51.6903 130.055 52.1266 130.242 52.5113 130.089L51.9555 128.696ZM49.6667 131.103C50.0617 130.978 50.2808 130.557 50.1562 130.162C50.0316 129.767 49.6103 129.548 49.2153 129.672L49.6667 131.103ZM46.3831 130.455C45.9802 130.551 45.7315 130.955 45.8275 131.358C45.9236 131.761 46.3281 132.01 46.7311 131.914L46.3831 130.455ZM43.7736 132.513C44.182 132.445 44.4575 132.058 44.3889 131.649C44.3203 131.241 43.9335 130.965 43.525 131.034L43.7736 132.513ZM0.834548 5.73152C1.32737 5.84299 1.81763 5.95668 2.30534 6.07257L2.65212 4.61321C2.15911 4.49605 1.66356 4.38114 1.16545 4.26848L0.834548 5.73152ZM5.20092 6.79411C6.15591 7.04328 7.10071 7.30104 8.03537 7.56718L8.44616 6.12453C7.50078 5.85533 6.54528 5.59465 5.57961 5.3427L5.20092 6.79411ZM10.8815 8.413C11.8365 8.70887 12.7805 9.01365 13.7135 9.32711L14.1912 7.90521C13.2469 7.58796 12.2917 7.27954 11.3254 6.98019L10.8815 8.413ZM16.4795 10.2933C17.4219 10.6352 18.3526 10.9862 19.2716 11.3459L19.8183 9.94908C18.8876 9.58478 17.9452 9.2294 16.9911 8.88321L16.4795 10.2933ZM22.0159 12.4604C22.9236 12.8426 23.8194 13.2336 24.7034 13.633L25.321 12.2661C24.4252 11.8613 23.5176 11.4652 22.598 11.078L22.0159 12.4604ZM27.4105 14.9003C28.3002 15.3316 29.1773 15.7716 30.0417 16.2201L30.7325 14.8886C29.8559 14.4339 28.9667 13.9877 28.0648 13.5505L27.4105 14.9003ZM32.6517 17.6207C33.5227 18.104 34.3802 18.5961 35.2242 19.0965L35.9893 17.8063C35.1329 17.2985 34.263 16.7993 33.3795 16.3091L32.6517 17.6207ZM37.7239 20.628C38.5705 21.1637 39.4027 21.7081 40.2207 22.2608L41.0605 21.0179C40.2301 20.4568 39.3853 19.9042 38.526 19.3604L37.7239 20.628ZM42.6316 23.9434C43.4398 24.5258 44.2332 25.1166 45.0116 25.7152L45.926 24.5262C45.1352 23.918 44.3294 23.318 43.5086 22.7264L42.6316 23.9434ZM47.3247 27.5525C48.0901 28.1805 48.8401 28.8163 49.5748 29.4595L50.5628 28.3309C49.8161 27.6771 49.0539 27.031 48.2761 26.3928L47.3247 27.5525ZM51.7728 31.4481C52.493 32.1215 53.1973 32.8021 53.8856 33.4896L54.9456 32.4283C54.2456 31.7292 53.5295 31.037 52.7973 30.3524L51.7728 31.4481ZM55.9521 35.6244C56.6243 36.3429 57.2799 37.068 57.919 37.7992L59.0484 36.8121C58.3981 36.0681 57.7312 35.3304 57.0474 34.5996L55.9521 35.6244ZM59.837 40.0723C60.4592 40.8365 61.0641 41.6066 61.6519 42.3822L62.8474 41.4762C62.2491 40.6867 61.6334 39.9029 61.0001 39.1252L59.837 40.0723ZM63.4016 44.7788C63.9688 45.5857 64.5179 46.3977 65.0492 47.2143L66.3065 46.3962C65.7654 45.5646 65.2062 44.7378 64.6287 43.9162L63.4016 44.7788ZM66.6196 49.7275C67.1269 50.5735 67.6154 51.4237 68.0854 52.2774L69.3994 51.554C68.9206 50.6841 68.4228 49.818 67.9061 48.9562L66.6196 49.7275ZM69.4648 54.8985C69.9075 55.7795 70.3307 56.6636 70.7348 57.55L72.0997 56.9279C71.6878 56.0242 71.2563 55.1231 70.8052 54.2251L69.4648 54.8985ZM71.9109 60.2685C72.2844 61.1799 72.6379 62.093 72.9715 63.0072L74.3806 62.493C74.0403 61.5605 73.6798 60.6291 73.2989 59.6997L71.9109 60.2685ZM73.9315 65.8107C74.2317 66.7484 74.5112 67.6864 74.7701 68.6238L76.216 68.2245C75.9517 67.2676 75.6664 66.3102 75.3601 65.3533L73.9315 65.8107ZM75.4993 71.4948C75.7222 72.4556 75.9234 73.4149 76.1033 74.3719L77.5775 74.0948C77.3937 73.117 77.1881 72.1371 76.9606 71.1559L75.4993 71.4948ZM76.5863 77.2862C76.7266 78.2643 76.8444 79.239 76.9401 80.2095L78.4328 80.0624C78.335 79.0698 78.2145 78.073 78.0711 77.0732L76.5863 77.2862ZM77.1623 83.1447C77.2145 84.1334 77.2433 85.1166 77.249 86.0933L78.7489 86.0847C78.7432 85.0843 78.7137 84.0776 78.6602 83.0657L77.1623 83.1447ZM77.1957 89.0237C77.1537 90.0148 77.0872 90.9979 76.9967 91.972L78.4903 92.1108C78.5832 91.1115 78.6513 90.1032 78.6944 89.0872L77.1957 89.0237ZM76.6498 94.887C76.5076 95.8637 76.3404 96.8298 76.1485 97.784L77.619 98.0798C77.8164 97.0988 77.9882 96.1061 78.1342 95.103L76.6498 94.887ZM75.4879 100.65C75.2402 101.6 74.9669 102.537 74.6682 103.459L76.0951 103.921C76.403 102.971 76.6845 102.006 76.9394 101.028L75.4879 100.65ZM73.6763 106.228C73.3163 107.143 72.9298 108.041 72.517 108.92L73.8748 109.557C74.3015 108.649 74.7006 107.722 75.0721 106.777L73.6763 106.228ZM71.1878 111.523C70.712 112.383 70.2089 113.221 69.679 114.038L70.9373 114.855C71.4866 114.008 72.0076 113.139 72.5001 112.25L71.1878 111.523ZM68.001 116.432C67.4118 117.21 66.7955 117.965 66.1523 118.694L67.2774 119.686C67.9456 118.928 68.5856 118.145 69.197 117.337L68.001 116.432ZM64.1376 120.81C63.4407 121.487 62.7171 122.138 61.9672 122.761L62.9253 123.915C63.7057 123.267 64.4584 122.59 65.1832 121.885L64.1376 120.81ZM59.6455 124.538C58.8558 125.094 58.0407 125.622 57.2004 126.119L57.9648 127.41C58.8392 126.892 59.6874 126.343 60.5093 125.764L59.6455 124.538ZM54.6313 127.508C53.7632 127.934 52.8712 128.33 51.9555 128.696L52.5113 130.089C53.4625 129.709 54.3897 129.297 55.2924 128.854L54.6313 127.508ZM49.2153 129.672C48.2929 129.963 47.3488 130.225 46.3831 130.455L46.7311 131.914C47.7312 131.675 48.7098 131.405 49.6667 131.103L49.2153 129.672ZM43.525 131.034C43.0386 131.116 42.5472 131.19 42.0508 131.257L42.2502 132.743C42.7629 132.675 43.2707 132.598 43.7736 132.513L43.525 131.034Z" fill="#797979"/>
</svg>
