<svg width="814" height="322" viewBox="0 0 814 322" fill="none" xmlns="http://www.w3.org/2000/svg">
<g opacity="0.05">
<path d="M793.583 211.692C785.686 211.692 779.392 209.409 774.703 204.843C770.137 200.154 767.854 192.934 767.854 183.186V120.805V119.694L771.371 99.3325H786.364V183.556C786.364 187.011 787.228 189.603 788.956 191.33C790.807 193.058 793.09 193.922 795.805 193.922C797.903 193.922 799.754 193.798 801.358 193.551C802.962 193.305 804.381 192.996 805.615 192.626V209.841C804.011 210.334 802.222 210.766 800.247 211.136C798.396 211.507 796.175 211.692 793.583 211.692ZM753.971 136.724V119.694H805.615V136.724H753.971Z" fill="#0D0C0A"/>
<path d="M722.825 210.026L699.687 174.3H706.351L683.398 210.026H661L695.059 160.232V169.487L661 119.694H683.398L706.351 155.419H699.872L722.825 119.694H745.223L711.164 169.487V160.232L745.223 210.026H722.825Z" fill="#0D0C0A"/>
<path d="M610.591 211.877C601.83 211.877 594.117 209.964 587.453 206.139C580.789 202.19 575.606 196.698 571.904 189.664C568.202 182.63 566.351 174.424 566.351 165.045C566.351 155.543 568.202 147.275 571.904 140.241C575.606 133.207 580.789 127.716 587.453 123.767C594.117 119.818 601.83 117.843 610.591 117.843C619.476 117.843 627.251 119.818 633.915 123.767C640.579 127.716 645.761 133.207 649.464 140.241C653.166 147.275 655.017 155.543 655.017 165.045C655.017 165.909 654.955 166.835 654.832 167.822C654.832 168.686 654.77 169.488 654.647 170.228H583.936V154.309H641.319L636.136 165.045C636.136 155.667 634.038 147.954 629.842 141.907C625.647 135.86 619.23 132.837 610.591 132.837C602.94 132.837 596.832 135.305 592.266 140.241C587.7 145.054 585.417 151.409 585.417 159.307V168.932C585.417 177.201 587.638 183.803 592.081 188.739C596.523 193.552 602.694 195.958 610.591 195.958C617.872 195.958 623.487 194.415 627.436 191.33C631.385 188.245 634.84 184.42 637.802 179.854L651.685 188.554C647.489 196.328 642.059 202.19 635.396 206.139C628.855 209.964 620.587 211.877 610.591 211.877Z" fill="#0D0C0A"/>
<path d="M528.541 210.026L447.095 104.33L457.461 101.369V210.026H438.95V83.9688H454.684L533.354 185.962H525.765V83.9688H544.275V210.026H528.541Z" fill="#0D0C0A"/>
<path d="M319.277 210.026L290.771 119.694H309.282L327.977 186.147H326.311L347.413 119.694H364.258L385.36 186.147H383.694L402.39 119.694H420.9L392.394 210.026H376.66L354.262 139.5H357.409L335.011 210.026H319.277Z" fill="#0D0C0A"/>
<path d="M239.163 211.877C230.031 211.877 221.948 209.964 214.914 206.139C208.004 202.19 202.636 196.698 198.81 189.664C194.985 182.63 193.072 174.424 193.072 165.045C193.072 155.543 194.985 147.275 198.81 140.241C202.636 133.207 208.004 127.716 214.914 123.767C221.948 119.818 230.031 117.843 239.163 117.843C248.418 117.843 256.501 119.818 263.412 123.767C270.323 127.716 275.691 133.207 279.516 140.241C283.465 147.275 285.44 155.543 285.44 165.045C285.44 174.424 283.465 182.63 279.516 189.664C275.691 196.698 270.323 202.19 263.412 206.139C256.501 209.964 248.418 211.877 239.163 211.877ZM239.163 194.107C247.431 194.107 254.033 191.454 258.969 186.147C264.029 180.718 266.559 173.684 266.559 165.045C266.559 156.284 264.029 149.188 258.969 143.758C254.033 138.328 247.431 135.613 239.163 135.613C231.018 135.613 224.416 138.328 219.357 143.758C214.421 149.064 211.953 156.098 211.953 164.86C211.953 173.622 214.421 180.718 219.357 186.147C224.416 191.454 231.018 194.107 239.163 194.107Z" fill="#0D0C0A"/>
<path d="M155.204 119.694L159.646 144.128V210.026H141.136V119.694H155.204ZM156.87 151.718L152.427 149.681V136.169L154.093 134.133C155.327 131.911 157.24 129.567 159.831 127.099C162.546 124.507 165.693 122.348 169.272 120.62C172.851 118.769 176.491 117.843 180.193 117.843C182.044 117.843 183.772 117.967 185.376 118.213C187.104 118.46 188.399 118.892 189.263 119.509V136.169H183.525C175.134 136.169 169.025 137.464 165.2 140.056C161.374 142.524 158.597 146.411 156.87 151.718Z" fill="#0D0C0A"/>
<path d="M63.8468 211.877C51.1362 211.877 39.9682 209.1 30.3427 203.547C20.8406 197.871 13.4363 190.158 8.12996 180.409C2.82359 170.537 0.17041 159.43 0.17041 147.09C0.17041 137.711 1.77466 129.073 4.98316 121.175C8.19167 113.277 12.6342 106.428 18.3108 100.628C24.1108 94.8284 30.8363 90.3241 38.4873 87.1156C46.2618 83.9071 54.7149 82.3029 63.8468 82.3029C78.1617 82.3029 89.8851 85.2646 99.017 91.1879C108.149 96.9879 115.615 104.824 121.415 114.696L103.274 120.064C97.5978 112.29 91.4893 107.045 84.9489 104.33C78.5319 101.492 71.4979 100.073 63.8468 100.073C55.332 100.073 47.6809 102.109 40.8937 106.182C34.2299 110.254 28.9235 115.807 24.9746 122.841C21.0257 129.875 19.0512 137.958 19.0512 147.09C19.0512 156.098 21.0257 164.181 24.9746 171.339C28.9235 178.373 34.2299 183.926 40.8937 187.998C47.6809 192.071 55.332 194.107 63.8468 194.107C71.9915 194.107 79.3957 192.317 86.0595 188.739C92.8468 185.037 98.2148 180.039 102.164 173.745C106.113 167.452 108.087 160.294 108.087 152.273L110.864 163.009H62.7362V145.609H124.562C124.932 146.843 125.179 148.262 125.302 149.867C125.549 151.471 125.672 153.013 125.672 154.494C125.672 162.392 124.13 169.796 121.045 176.707C117.959 183.618 113.579 189.726 107.902 195.032C102.349 200.339 95.8085 204.473 88.2808 207.434C80.8766 210.396 72.7319 211.877 63.8468 211.877Z" fill="#0D0C0A"/>
<path fill-rule="evenodd" clip-rule="evenodd" d="M765.961 219.23L811.269 264.538C814.049 267.319 814.049 271.826 811.269 274.607L765.961 319.915C763.181 322.695 758.673 322.695 755.893 319.915C753.112 317.134 753.112 312.626 755.893 309.846L789.047 276.692H464.501C460.569 276.692 457.381 273.504 457.381 269.572C457.381 265.64 460.569 262.453 464.501 262.453H789.047L755.893 229.299C753.112 226.518 753.112 222.011 755.893 219.23C758.673 216.45 763.181 216.45 765.961 219.23Z" fill="#374550"/>
<path fill-rule="evenodd" clip-rule="evenodd" d="M405.033 0.459728C408.713 -0.927486 412.82 0.930481 414.207 4.60961L436.813 64.5645C438.2 68.2437 436.342 72.3507 432.663 73.738C428.984 75.1252 424.877 73.2672 423.489 69.5881L406.664 24.9653C390.511 54.9001 371.005 74.4713 349.777 87.3506C325.324 102.187 299.132 107.805 274.454 110.748C264.63 111.92 254.906 112.68 245.64 113.405C243.302 113.588 240.994 113.768 238.72 113.953C227.325 114.876 216.773 115.895 207.145 117.736C187.951 121.404 173.551 128.118 164.384 142.633L152.345 135.03C164.536 115.727 183.508 107.757 204.472 103.75C214.923 101.752 226.147 100.686 237.57 99.7602C239.928 99.5691 242.293 99.384 244.667 99.1983C253.903 98.4756 263.261 97.7435 272.767 96.6097C296.59 93.7684 320.456 88.4853 342.391 75.1771C360.784 64.0179 378.207 46.9759 393.044 20.1979L350.102 36.389C346.423 37.7762 342.316 35.9182 340.929 32.2391C339.541 28.56 341.399 24.4529 345.078 23.0657L405.033 0.459728Z" fill="#0D0C0A"/>
</g>
</svg>
