<svg width="409" height="162" viewBox="0 0 409 162" fill="none" xmlns="http://www.w3.org/2000/svg">
<path d="M399.069 106.463C395.101 106.463 391.94 105.316 389.584 103.023C387.291 100.667 386.144 97.0409 386.144 92.1439V60.8091V60.2512L387.911 50.0232H395.442V92.3299C395.442 94.0655 395.876 95.3673 396.744 96.2351C397.674 97.1029 398.821 97.5368 400.184 97.5368C401.238 97.5368 402.168 97.4749 402.974 97.3509C403.78 97.2269 404.492 97.0719 405.112 96.886V105.533C404.306 105.781 403.408 105.998 402.416 106.184C401.486 106.37 400.37 106.463 399.069 106.463ZM379.17 68.8055V60.2512H405.112V68.8055H379.17Z" fill="#0D0C0A"/>
<path d="M363.526 105.626L351.903 87.6807H355.25L343.72 105.626H332.47L349.578 80.6141V85.2632L332.47 60.2511H343.72L355.25 78.1966H351.996L363.526 60.2511H374.776L357.668 85.2632V80.6141L374.776 105.626H363.526Z" fill="#0D0C0A"/>
<path d="M307.149 106.556C302.748 106.556 298.874 105.595 295.526 103.674C292.179 101.69 289.575 98.9317 287.716 95.3984C285.856 91.8651 284.926 87.7429 284.926 83.0319C284.926 78.2588 285.856 74.1056 287.716 70.5723C289.575 67.039 292.179 64.2806 295.526 62.297C298.874 60.3133 302.748 59.3215 307.149 59.3215C311.612 59.3215 315.517 60.3133 318.865 62.297C322.212 64.2806 324.815 67.039 326.675 70.5723C328.535 74.1056 329.464 78.2588 329.464 83.0319C329.464 83.4658 329.434 83.9307 329.372 84.4266C329.372 84.8605 329.341 85.2634 329.279 85.6354H293.76V77.6389H322.584L319.98 83.0319C319.98 78.3208 318.927 74.4466 316.819 71.4092C314.711 68.3718 311.488 66.8531 307.149 66.8531C303.306 66.8531 300.237 68.0928 297.944 70.5723C295.65 72.9898 294.503 76.1822 294.503 80.1494V84.9845C294.503 89.1377 295.619 92.454 297.851 94.9335C300.082 97.3511 303.182 98.5598 307.149 98.5598C310.806 98.5598 313.627 97.785 315.61 96.2353C317.594 94.6856 319.329 92.764 320.817 90.4704L327.791 94.8405C325.683 98.7458 322.956 101.69 319.608 103.674C316.323 105.595 312.17 106.556 307.149 106.556Z" fill="#0D0C0A"/>
<path d="M265.934 105.626L225.022 52.5338L230.229 51.0461V105.626H220.931V42.3058H228.834L268.351 93.5387H264.539V42.3058H273.837V105.626H265.934Z" fill="#0D0C0A"/>
<path d="M160.817 105.626L146.498 60.2511H155.796L165.187 93.6315H164.35L174.95 60.2511H183.411L194.011 93.6315H193.174L202.566 60.2511H211.864L197.544 105.626H189.641L178.39 70.2001H179.971L168.72 105.626H160.817Z" fill="#0D0C0A"/>
<path d="M120.574 106.556C115.987 106.556 111.927 105.595 108.394 103.674C104.922 101.69 102.226 98.9317 100.304 95.3984C98.3827 91.8651 97.4219 87.7429 97.4219 83.0319C97.4219 78.2588 98.3827 74.1056 100.304 70.5723C102.226 67.039 104.922 64.2806 108.394 62.297C111.927 60.3133 115.987 59.3215 120.574 59.3215C125.223 59.3215 129.284 60.3133 132.755 62.297C136.226 64.2806 138.923 67.039 140.844 70.5723C142.828 74.1056 143.82 78.2588 143.82 83.0319C143.82 87.7429 142.828 91.8651 140.844 95.3984C138.923 98.9317 136.226 101.69 132.755 103.674C129.284 105.595 125.223 106.556 120.574 106.556ZM120.574 97.63C124.727 97.63 128.044 96.2973 130.523 93.6318C133.065 90.9043 134.336 87.371 134.336 83.0319C134.336 78.6307 133.065 75.0664 130.523 72.339C128.044 69.6115 124.727 68.2478 120.574 68.2478C116.483 68.2478 113.167 69.6115 110.625 72.339C108.146 75.0044 106.906 78.5378 106.906 82.9389C106.906 87.34 108.146 90.9043 110.625 93.6318C113.167 96.2973 116.483 97.63 120.574 97.63Z" fill="#0D0C0A"/>
<path d="M78.4001 60.2514L80.6317 72.5249V105.626H71.3335V60.2514H78.4001ZM79.2369 76.3372L77.0054 75.3144V68.5267L77.8422 67.5039C78.4621 66.3881 79.4229 65.2104 80.7247 63.9706C82.0884 62.6689 83.6691 61.5841 85.4667 60.7163C87.2644 59.7864 89.093 59.3215 90.9526 59.3215C91.8825 59.3215 92.7503 59.3835 93.5561 59.5075C94.424 59.6315 95.0748 59.8484 95.5087 60.1584V68.5267H92.6263C88.4111 68.5267 85.3427 69.1776 83.4211 70.4793C81.4995 71.7191 80.1048 73.6717 79.2369 76.3372Z" fill="#0D0C0A"/>
<path d="M32.5101 106.556C26.1254 106.556 20.5155 105.161 15.6804 102.372C10.9074 99.5206 7.1881 95.6463 4.52263 90.7493C1.85715 85.7903 0.524414 80.2114 0.524414 74.0126C0.524414 69.3015 1.33026 64.9624 2.94194 60.9952C4.55362 57.0279 6.78518 53.5876 9.63662 50.6742C12.55 47.7608 15.9284 45.4982 19.7716 43.8865C23.6769 42.2748 27.923 41.469 32.5101 41.469C39.7007 41.469 45.5895 42.9567 50.1766 45.9321C54.7637 48.8455 58.514 52.7818 61.4274 57.7408L52.3152 60.4373C49.4638 56.532 46.3954 53.8976 43.11 52.5338C39.8867 51.1081 36.3534 50.3952 32.5101 50.3952C28.233 50.3952 24.3897 51.418 20.9804 53.4636C17.633 55.5092 14.9676 58.2987 12.984 61.832C11.0004 65.3653 10.0085 69.4255 10.0085 74.0126C10.0085 78.5377 11.0004 82.5979 12.984 86.1932C14.9676 89.7265 17.633 92.516 20.9804 94.5616C24.3897 96.6072 28.233 97.6299 32.5101 97.6299C36.6013 97.6299 40.3206 96.7311 43.6679 94.9335C47.0773 93.0738 49.7737 90.5633 51.7573 87.402C53.7409 84.2406 54.7327 80.6453 54.7327 76.6161L56.1275 82.009H31.9522V73.2687H63.0081C63.1941 73.8886 63.3181 74.6015 63.38 75.4073C63.504 76.2132 63.566 76.988 63.566 77.7319C63.566 81.6991 62.7912 85.4184 61.2415 88.8897C59.6918 92.361 57.4912 95.4294 54.6398 98.0949C51.8503 100.76 48.565 102.837 44.7837 104.325C41.0644 105.812 36.9732 106.556 32.5101 106.556Z" fill="#0D0C0A"/>
<path fill-rule="evenodd" clip-rule="evenodd" d="M385.194 110.25L407.952 133.009C409.349 134.405 409.349 136.67 407.952 138.066L385.194 160.825C383.797 162.222 381.533 162.222 380.136 160.825C378.739 159.429 378.739 157.164 380.136 155.768L396.79 139.114H233.765C231.79 139.114 230.189 137.513 230.189 135.538C230.189 133.562 231.79 131.961 233.765 131.961H396.79L380.136 115.307C378.739 113.911 378.739 111.646 380.136 110.25C381.533 108.853 383.797 108.853 385.194 110.25Z" fill="#374550"/>
<path fill-rule="evenodd" clip-rule="evenodd" d="M203.893 0.357882C205.742 -0.338938 207.805 0.594349 208.501 2.44244L219.857 32.5588C220.554 34.4068 219.62 36.4699 217.772 37.1667C215.924 37.8635 213.861 36.9303 213.164 35.0822L204.713 12.6674C196.599 27.7042 186.801 37.5351 176.137 44.0046C163.854 51.4569 150.698 54.2792 138.301 55.7577C133.367 56.3462 128.482 56.7281 123.828 57.0921C122.653 57.1839 121.494 57.2746 120.352 57.3672C114.628 57.8311 109.327 58.3431 104.491 59.2675C94.8495 61.1104 87.616 64.4829 83.0112 71.7739L76.9639 67.9545C83.0877 58.2584 92.6177 54.255 103.148 52.2423C108.398 51.2388 114.036 50.7032 119.774 50.2381C120.958 50.1421 122.147 50.0491 123.339 49.9559C127.978 49.5928 132.679 49.2251 137.454 48.6556C149.421 47.2284 161.409 44.5745 172.427 37.8896C181.666 32.2842 190.418 23.7237 197.871 10.2727L176.301 18.4057C174.452 19.1026 172.389 18.1693 171.693 16.3212C170.996 14.4731 171.929 12.41 173.777 11.7132L203.893 0.357882Z" fill="#0D0C0A"/>
</svg>
