<svg width="16" height="18" viewBox="0 0 16 18" fill="none" xmlns="http://www.w3.org/2000/svg">
<path fill-rule="evenodd" clip-rule="evenodd" d="M8 0C5.5454 0 3.55556 2.01472 3.55556 4.5C3.55556 6.98528 5.5454 9 8 9C10.4546 9 12.4444 6.98528 12.4444 4.5C12.4444 2.01472 10.4546 0 8 0ZM5.33333 4.5C5.33333 3.00883 6.52724 1.8 8 1.8C9.47276 1.8 10.6667 3.00883 10.6667 4.5C10.6667 5.99117 9.47276 7.2 8 7.2C6.52724 7.2 5.33333 5.99117 5.33333 4.5Z" fill="#111111"/>
<path d="M4.44444 10.8C3.2657 10.8 2.13524 11.2741 1.30175 12.118C0.468253 12.9619 0 14.1065 0 15.3V17.1C0 17.5971 0.397969 18 0.888889 18C1.37981 18 1.77778 17.5971 1.77778 17.1V15.3C1.77778 14.5839 2.05873 13.8972 2.55883 13.3908C3.05892 12.8845 3.7372 12.6 4.44444 12.6H11.5556C12.2628 12.6 12.9411 12.8845 13.4412 13.3908C13.9413 13.8972 14.2222 14.5839 14.2222 15.3V17.1C14.2222 17.5971 14.6202 18 15.1111 18C15.602 18 16 17.5971 16 17.1V15.3C16 14.1065 15.5317 12.9619 14.6983 12.118C13.8648 11.2741 12.7343 10.8 11.5556 10.8H4.44444Z" fill="#111111"/>
</svg>
